<?xml version="1.0" encoding="utf-8"?>
<!-- Generator: Adobe Illustrator 21.0.0, SVG Export Plug-In . SVG Version: 6.00 Build 0)  -->
<svg version="1.1"
	 id="svg8" inkscape:version="1.2.2 (732a01da63, 2022-12-09)" sodipodi:docname="Fallout_logo.svg" xmlns:inkscape="http://www.inkscape.org/namespaces/inkscape" xmlns:sodipodi="http://sodipodi.sourceforge.net/DTD/sodipodi-0.dtd" xmlns:svg="http://www.w3.org/2000/svg"
	 xmlns="http://www.w3.org/2000/svg" xmlns:xlink="http://www.w3.org/1999/xlink" x="0px" y="0px" viewBox="0 0 7647 3053"
	 style="enable-background:new 0 0 7647 3053;" xml:space="preserve">
<style type="text/css">
	.st0{fill:#FED141;}
</style>
<path id="path4" sodipodi:nodetypes="cccccccccccsccccsccsccccccscsccccccccccccccccsccccccccccccccccccccsccccccccccccccccccccscccccc" class="st0" d="
	M1424,1090H856l178-678h735L1875,1H698L0,2662h444l305-1161h568L1424,1090 M2267,702c-426,0-616,138-682,388l-59,228h446
	c0,0,17-75,55-216c37-141,88-150,155-150c29,0,124,2,84,177c-11,48-46,195-90,369c-60,2-99,0-214,0c-187,0-507,57-603,406
	c-96,350-179,552-68,688c105,128,403,124,631-128l-52,198h452l412-1571C2780,913,2651,702,2267,702z M1982,2235
	c-36,66-83,114-145,114c-164,0-83-214-38-371c15-55,34-232,213-232l98-2L1982,2235z M3182,0l-698,2661h444L3626,0H3182 M3787,1
	l-698,2661h444L4231,1H3787 M3921,1798l940-1094c-23-2-48-3-73-3c-426,0-613,137-679,387L3921,1798z M4573,1515h575
	c49-180,82-326,107-425c35-148-53-298-199-342l117-407L4573,1515z M4485,1820h-569l-126,466c-42,162,63,352,374,384L4485,1820z
	 M4019,3053l426-389c295-37,436-167,491-377l206-751L4019,3053z M6199,770c-21,95-361,1365-385,1451c-36,73-85,128-151,128
	c-157,0-80-226-36-383l314-1196h-443l-304,1150c-96,349-160,536-49,672c105,129,377,124,605-131l-54,201h444c0,0,459-1715,505-1893
	L6199,770z M7641,5l-530,219l-147,546h-169l-66,256h167l-240,894c-96,349-177,545-55,672c92,96,241,83,554,70l81-313h-94
	c-155,0-78-213-34-371l257-952h216l66-256h-212L7641,5z"/>
</svg>
